PathFileType	4	(X/Y/Z)	Kaydara																																																																																																																									
DataRate	CameraRate	NumFrames	NumMarkers	Units	OrigDataRate	OrigDataStartFrame	OrigNumFrames																																																																																																																					
30	30	9	41	mm	30	241	300																																																																																																																					
Frame#	Time	PAIB_LFHD			PAIB_RFHD			PAIB_LBHD			PAIB_RBHD			PAIB_LFTShould			PAIB_RFTShould			PAIB_LRRShould			PAIB_RRRShould			PAIB_T10			PAIB_STRN			PAIB_TRUN			PAIB_LSHO			PAIB_LUPA			PAIB_LELB			PAIB_LFRM			PAIB_LWRA			PAIB_LWRB			PAIB_LFIN			PAIB_RSHO			PAIB_RUPA			PAIB_RELB			PAIB_RFRM			PAIB_RWRA			PAIB_RWRB			PAIB_RFIN			PAIB_LFWT			PAIB_RFWT			PAIB_LBWT			PAIB_RBWT			PAIB_LTHI			PAIB_LKNE			PAIB_LSHN			PAIB_LANK			PAIB_LHEE			PAIB_LTOE			PAIB_RTHI			PAIB_RKNE			PAIB_RSHN			PAIB_RANK			PAIB_RHEE			PAIB_RTOE		
		X1	Y1	Z1	X2	Y2	Z2	X3	Y3	Z3	X4	Y4	Z4	X5	Y5	Z5	X6	Y6	Z6	X7	Y7	Z7	X8	Y8	Z8	X9	Y9	Z9	X10	Y10	Z10	X11	Y11	Z11	X12	Y12	Z12	X13	Y13	Z13	X14	Y14	Z14	X15	Y15	Z15	X16	Y16	Z16	X17	Y17	Z17	X18	Y18	Z18	X19	Y19	Z19	X20	Y20	Z20	X21	Y21	Z21	X22	Y22	Z22	X23	Y23	Z23	X24	Y24	Z24	X25	Y25	Z25	X26	Y26	Z26	X27	Y27	Z27	X28	Y28	Z28	X29	Y29	Z29	X30	Y30	Z30	X31	Y31	Z31	X32	Y32	Z32	X33	Y33	Z33	X34	Y34	Z34	X35	Y35	Z35	X36	Y36	Z36	X37	Y37	Z37	X38	Y38	Z38	X39	Y39	Z39	X40	Y40	Z40	X41	Y41	Z41
																																																																																																																												
226	8	265.2265	1579.05075	1372.39105	80.91745	1582.58392	1354.64111	285.82159	1617.24457	1251.00754	82.53141	1625.60211	1246.90392	249.19706	1364.06128	1249.68163	128.71416	1357.51175	1249.75426	256.94635	1461.80344	1126.48483	102.59222	1454.13193	1138.0925	178.9127	1320.61371	1017.46559	198.11275	1289.82925	1271.14906	199.16452	1185.91225	1270.71617	376.37943	1397.36588	1185.58739	428.79181	1170.82924	1164.45236	451.18061	1088.85941	1118.67554	465.75012	972.30316	1155.88379	398.8467	852.56302	1230.1387	446.50162	839.68094	1166.30264	449.0205	798.51318	1227.14966	-0.55533	1373.13446	1208.65494	-68.0297	1208.61267	1146.42357	-91.2641	1092.95532	1122.40517	-98.21441	954.22104	1153.22678	-23.62813	854.83566	1246.11351	-94.33508	836.30295	1203.92189	-77.95957	802.5322	1268.23807	304.46695	930.3981	1203.22433	70.14484	943.80783	1225.75012	225.25795	988.5672	994.96094	81.42286	996.62369	1007.11105	271.73038	702.68143	998.79768	341.79218	458.78265	1081.37192	306.63025	299.09597	977.90886	294.34214	213.88792	791.49277	235.35717	240.66198	754.36569	278.79309	54.10223	868.00697	30.03904	685.8744	1044.15665	42.9388	451.49162	1152.77817	113.10973	277.10312	1193.33603	97.55986	65.1564	1134.71413	161.85772	73.07462	1085.56656	110.06027	43.71012	1313.60519
227	8.033	264.44519	1576.65543	1395.72449	79.97181	1579.66278	1378.90015	284.11839	1617.58957	1275.05348	80.84087	1625.08286	1272.1772	248.55806	1364.73648	1269.76128	128.14265	1357.78717	1271.73836	253.77579	1462.78046	1146.62781	99.75626	1454.80194	1161.11504	173.85622	1322.08618	1037.8363	197.84473	1290.16312	1291.64886	198.78435	1186.30943	1290.97534	374.30763	1398.74939	1203.30208	426.10447	1172.16187	1181.35559	447.04609	1089.74426	1136.1908	463.20778	973.95103	1176.01288	400.45181	857.51785	1258.42415	443.7122	841.80977	1192.02293	450.7943	803.43651	1254.27658	-1.39815	1373.71216	1233.85399	-70.54049	1208.88458	1175.04379	-95.22581	1093.22533	1153.28423	-102.16922	955.37933	1187.90802	-26.11689	858.23349	1281.94077	-97.89416	839.08714	1241.81519	-80.49623	807.14897	1306.79291	300.5847	932.90726	1223.42934	66.19723	943.71124	1247.2374	220.49187	988.64052	1014.87259	76.68304	997.21268	1028.10898	271.10044	699.69276	1027.80701	342.87888	459.74342	1126.76903	307.24426	301.94931	1021.69807	293.46708	219.06046	833.36472	233.43622	244.95178	797.65526	283.54767	62.32134	913.14217	28.38572	687.83661	1059.12766	40.63625	450.73261	1159.53339	112.39323	276.06167	1199.00452	97.72732	65.37113	1135.84404	162.10974	74.14216	1086.18629	110.2975	43.62171	1313.703
228	8.067	265.07452	1574.91455	1417.80075	80.48923	1578.32489	1403.24997	283.54519	1617.91519	1297.56943	80.22751	1625.15411	1296.57883	248.11638	1365.61295	1289.63486	127.80521	1358.44254	1293.50845	250.92073	1463.7085	1166.40594	97.4177	1455.76019	1183.81416	169.01533	1323.34167	1058.9151	197.60181	1290.74417	1311.82938	198.1452	1186.90987	1310.8136	372.61829	1399.77448	1219.62593	424.51504	1173.71201	1197.83829	443.21175	1090.46501	1152.24174	460.68668	975.53001	1195.23369	402.30686	864.02679	1286.88797	440.07881	844.4455	1218.0014	452.32845	809.37698	1281.13358	-2.1251	1374.67148	1258.29445	-72.0482	1209.2308	1202.75574	-97.82656	1093.64227	1183.12653	-104.81155	956.71509	1221.37375	-28.61936	861.91391	1317.77679	-100.70212	842.13234	1278.48381	-83.33358	811.996	1344.32297	296.76153	935.50491	1242.94861	62.23469	943.84048	1267.59888	217.45348	988.80646	1034.38019	73.58937	998.00217	1047.97188	271.9837	697.20428	1055.65102	342.579	462.3243	1172.79388	306.92396	302.87373	1070.34523	293.13921	216.8996	882.97348	232.6132	241.08633	846.86028	286.78581	65.34675	969.07196	26.48217	689.47601	1075.14214	40.18944	450.87269	1172.87697	112.0995	274.89017	1205.28145	97.60221	65.69219	1137.34009	162.07701	75.26323	1086.99387	110.60964	43.54871	1313.86841
229	8.1	266.88755	1573.76892	1438.57635	82.14415	1577.77603	1426.33881	283.82656	1617.31308	1318.20221	80.55155	1625.16846	1319.9588	247.53284	1365.83588	1309.51126	127.2629	1358.66852	1315.18997	248.27675	1464.0065	1186.34254	95.30161	1456.37665	1206.28151	164.41998	1324.09164	1079.91318	197.14569	1290.7019	1331.8956	197.42008	1186.87912	1330.57816	370.91805	1400.29419	1237.54715	423.64925	1174.64317	1213.34511	440.17097	1090.59608	1168.03688	458.67805	976.8129	1214.78531	403.17158	870.9584	1314.34296	436.57047	847.13058	1244.35463	452.45506	815.41153	1308.39722	-2.92229	1375.45258	1282.15134	-73.47138	1209.4529	1229.65149	-99.90095	1093.87733	1212.17331	-106.59632	957.78641	1253.92349	-30.31667	865.68573	1352.90878	-102.36446	844.65324	1314.24103	-85.42794	816.8203	1380.82336	293.93381	937.18079	1261.66771	59.41356	943.01773	1287.50168	214.96021	988.91731	1052.72812	71.05215	998.32199	1067.52319	274.08421	695.21286	1082.58469	340.98068	465.53947	1218.69141	305.8812	301.619	1122.91275	293.52285	207.70472	939.28574	233.17354	229.53342	901.23398	287.90024	64.18424	1035.41603	24.77028	690.25894	1091.51138	40.36265	450.2684	1185.25818	112.84492	273.34253	1211.83853	97.6615	66.41862	1138.46436	162.13581	76.49086	1088.01712	110.78756	43.65568	1314.16656
230	8.133	269.60604	1572.76596	1458.38516	84.73261	1577.62115	1449.08676	284.51849	1616.08307	1337.56119	81.38719	1625.04166	1342.85538	247.13316	1364.91882	1328.94165	126.89072	1358.18405	1336.74789	246.04261	1463.64899	1206.23276	93.38475	1456.22589	1228.63586	160.15942	1324.26208	1100.95398	196.99739	1289.80621	1351.8811	196.9993	1186.04111	1350.08087	369.14146	1399.51477	1254.79698	423.04497	1174.64836	1229.50302	438.91846	1090.6617	1184.23943	457.20413	977.743	1235.12413	402.41535	877.13257	1340.15656	433.88721	849.63356	1270.61737	451.09901	821.0733	1335.71991	-3.53603	1375.55481	1306.14655	-75.00311	1209.28947	1256.23802	-102.11555	1093.6911	1240.63538	-107.99557	958.42941	1285.77942	-30.80639	869.40689	1386.97464	-102.89904	846.80008	1348.92456	-85.84776	821.19957	1416.34003	292.46035	937.99126	1280.11414	58.10586	941.3298	1307.54364	212.92072	988.41438	1071.65573	68.76873	998.0938	1087.10098	276.23186	693.1926	1109.79637	338.45554	469.67121	1263.56201	304.84352	299.31673	1177.90718	294.01924	192.14525	1001.53534	233.83209	210.15158	961.01379	288.51856	60.40057	1111.37779	24.36164	690.86266	1107.41928	40.24408	449.13582	1195.60638	113.54225	271.7774	1218.27301	98.53238	66.29665	1139.75182	162.60054	77.63231	1089.21005	111.3098	43.50091	1314.41803
231	8.167	272.57568	1571.46942	1477.67929	87.71575	1577.18369	1471.81046	285.49351	1614.69498	1356.62598	82.53687	1624.71802	1365.71304	246.9145	1363.34457	1348.03513	126.9875	1357.18201	1358.15704	244.12258	1463.01453	1226.14014	91.83258	1455.54596	1250.91904	156.47265	1324.0918	1121.78093	197.21594	1288.59222	1371.83868	197.1236	1184.85435	1369.63959	367.86243	1398.79395	1272.71614	422.32296	1174.319	1246.57181	438.43914	1090.48325	1201.75659	455.99701	978.53043	1255.94528	400.53131	881.85112	1364.15894	431.91769	851.78902	1295.63446	448.90125	825.62119	1361.93161	-3.52873	1374.82376	1329.94934	-76.45845	1208.77335	1282.74689	-104.40229	1093.1884	1269.00124	-109.04594	958.72032	1317.0816	-29.96033	872.50397	1419.28406	-102.44987	848.99048	1382.6416	-84.37436	824.89151	1450.6308	291.39286	938.77739	1299.11072	56.76492	938.80478	1325.87097	211.75924	987.21245	1090.88982	67.44448	997.453	1106.42944	277.50595	691.21002	1137.09496	335.87059	474.58855	1305.54321	303.85536	296.22087	1234.41292	293.94526	171.97123	1069.776	233.81863	184.87919	1027.12929	289.70554	56.40871	1194.97551	24.36466	691.24031	1122.85202	40.91228	448.08949	1206.12251	114.62914	270.05955	1224.20341	99.00006	66.82281	1141.22917	162.88225	78.82479	1090.39673	111.3768	43.38647	1314.61716
232	8.2	275.25791	1569.70795	1496.81793	90.84213	1576.45187	1494.61166	286.60196	1613.08151	1376.04645	83.85024	1624.10812	1388.83972	247.22622	1362.36603	1367.99332	127.50369	1355.79315	1379.19815	242.75951	1462.22763	1246.30386	90.95901	1454.44305	1272.94388	154.05495	1323.46771	1142.65236	197.79566	1287.44217	1392.11746	197.63149	1183.73413	1389.61273	367.27745	1398.18726	1291.37955	422.06047	1173.96202	1264.44313	437.91508	1090.06569	1220.0238	454.804	978.78036	1276.45462	398.38341	884.56085	1386.371	430.01076	853.01903	1318.76007	446.43406	828.15964	1385.60791	-3.14887	1373.91693	1353.13828	-77.51805	1208.08838	1308.83774	-106.17738	1092.44202	1297.04987	-109.50881	958.84369	1347.75604	-27.92624	874.85886	1449.79324	-100.92862	850.34866	1415.33859	-81.37797	827.76436	1483.33862	290.5682	939.16885	1318.45795	55.84252	936.66908	1345.53223	211.51577	986.06033	1110.57983	67.06941	996.72318	1126.02249	277.69413	690.01457	1164.22424	333.54656	479.0678	1342.7243	302.32044	293.25827	1292.27997	293.32993	150.44777	1143.67653	233.0405	156.89911	1099.95445	291.69601	54.42952	1282.90237	24.55669	691.7659	1137.72766	41.76702	447.23602	1216.56471	114.77695	268.80184	1229.81583	99.33461	67.22667	1142.09511	163.20187	79.89595	1091.39709	111.40078	43.28381	1314.73511
233	8.233	278.06192	1567.87674	1517.2467	93.77112	1575.30807	1517.57019	287.91124	1611.08261	1396.38046	85.42376	1623.228	1412.74765	247.89513	1361.1087	1388.74252	128.34493	1354.26498	1400.78323	242.24123	1461.08353	1267.20375	90.78234	1452.97058	1295.07828	152.93816	1322.5032	1163.99071	198.7435	1285.97183	1412.93182	198.5516	1182.30034	1410.15686	367.46284	1397.38052	1311.63391	421.81797	1173.15033	1283.36288	437.25883	1089.23042	1238.86536	453.64853	978.04474	1296.10077	396.51894	885.05928	1406.70547	427.98603	852.73972	1339.29764	444.1396	828.21503	1406.33102	-2.2378	1372.58835	1375.96893	-77.85927	1207.07443	1334.19327	-107.21498	1091.45126	1324.24332	-109.25492	958.54439	1377.0784	-25.24261	876.3266	1478.53836	-99.11898	851.22192	1446.40915	-77.55999	829.64432	1514.18488	290.3513	938.64487	1338.40515	55.5873	933.53355	1364.97864	211.55756	985.02869	1131.01158	67.06499	995.82184	1146.2619	277.45047	689.29672	1189.80026	331.09535	482.72751	1376.94061	302.2867	292.13146	1349.35349	292.90182	130.78159	1221.55479	231.53198	130.54299	1178.24272	295.23602	55.14909	1372.5	25.41274	692.3365	1152.13104	41.8212	446.1705	1225.00526	114.90656	267.22492	1234.74976	99.64214	67.64873	1142.86636	163.78754	80.85835	1092.5489	111.42457	43.04157	1314.80118
234	8.267	280.60858	1565.83481	1538.47504	96.4638	1573.7619	1540.5069	289.50968	1608.79059	1417.50504	87.12701	1621.45691	1435.76645	248.96797	1359.01993	1410.46616	129.50131	1352.09335	1422.93198	242.45092	1459.3103	1289.12582	91.3195	1451.14639	1317.85736	152.70684	1321.06003	1186.08192	199.95268	1283.77029	1434.51859	199.73551	1180.09964	1431.42426	367.88963	1395.61859	1332.35657	421.68312	1171.2233	1302.64008	436.83926	1087.56516	1258.0603	452.68486	975.97885	1315.01587	394.94495	882.79503	1425.22278	426.1219	850.52307	1357.267	442.15389	825.54047	1424.505	-0.91637	1370.69717	1399.15375	-77.25857	1205.43816	1358.89114	-107.07455	1089.8597	1350.09552	-108.03523	957.49878	1404.55566	-22.00585	876.70944	1505.58533	-96.66776	851.09116	1475.08636	-73.56166	830.33501	1542.43484	290.41323	937.14828	1359.38904	55.66938	930.54993	1386.05179	212.39403	983.76091	1152.27547	67.73793	994.50592	1167.13493	277.53313	688.28949	1214.02214	328.22708	484.84901	1407.82257	302.6841	292.7935	1404.82407	292.46431	115.07331	1301.83899	230.44624	108.85544	1260.39223	299.67039	56.48503	1461.4624	26.99833	692.73239	1166.74377	42.13254	444.9419	1232.18529	115.14679	265.89285	1239.73526	100.23882	68.23734	1143.62106	164.62807	82.03933	1093.72124	110.98184	43.1251	1314.82574
